<svg width="49" height="56" viewBox="0 0 49 56" fill="none" xmlns="http://www.w3.org/2000/svg">
<path d="M24.2488 12.1182L16.105 16.82V4.73206L10.4948 7.97117V35.941L24.2489 43.8819L38.003 35.941V20.0591L24.2488 12.1182ZM32.3926 32.7019L24.2488 37.4037L16.105 32.7019V23.2981L24.2488 18.5963L32.3926 23.2981V32.7019Z" fill="url(#paint0_linear_3_16)"/>
<path d="M4.87437 16.8141L7.08256 15.5393V9.91086L0 14V34.8247L4.87437 32.0106V16.8141Z" fill="url(#paint1_linear_3_16)"/>
<path d="M24.2487 50.3716L4.87877 39.1883L0.00439453 42.0026L24.2487 56L42.26 45.6011L37.3858 42.7869L24.2487 50.3716Z" fill="url(#paint2_linear_3_16)"/>
<path d="M43.6231 39.1858L43.604 39.1968L48.4784 42.011L48.4975 42V26.8375L43.6231 24.0233V39.1858Z" fill="url(#paint3_linear_3_16)"/>
<path d="M24.2487 0L19.517 2.73189V4.73204V8.36023L24.2487 5.62834L43.6231 16.8141V16.8431L48.4974 19.6573V14L24.2487 0Z" fill="url(#paint4_linear_3_16)"/>
<defs>
<linearGradient id="paint0_linear_3_16" x1="10.4947" y1="24.307" x2="38.0029" y2="24.307" gradientUnits="userSpaceOnUse">
<stop stop-color="#D41681"/>
<stop offset="1" stop-color="#4C2778"/>
</linearGradient>
<linearGradient id="paint1_linear_3_16" x1="8.46565" y1="58.1708" x2="0.906381" y2="3.21047" gradientUnits="userSpaceOnUse">
<stop stop-color="#D41681"/>
<stop offset="1" stop-color="#4C2778"/>
</linearGradient>
<linearGradient id="paint2_linear_3_16" x1="22.8367" y1="56.1942" x2="15.2774" y2="1.23389" gradientUnits="userSpaceOnUse">
<stop stop-color="#D41681"/>
<stop offset="1" stop-color="#4C2778"/>
</linearGradient>
<linearGradient id="paint3_linear_3_16" x1="48.7483" y1="52.6303" x2="41.1891" y2="-2.33002" gradientUnits="userSpaceOnUse">
<stop stop-color="#D41681"/>
<stop offset="1" stop-color="#4C2778"/>
</linearGradient>
<linearGradient id="paint4_linear_3_16" x1="39.8761" y1="53.8506" x2="32.3168" y2="-1.10973" gradientUnits="userSpaceOnUse">
<stop stop-color="#D41681"/>
<stop offset="1" stop-color="#4C2778"/>
</linearGradient>
</defs>
</svg>
