<svg xmlns="http://www.w3.org/2000/svg" viewBox="0 0 845.17 500.68"><defs><style>.cls-1{fill:#fff;}.cls-2{fill:#042ff8;}.cls-10,.cls-3,.cls-4,.cls-6,.cls-7{fill:none;stroke-miterlimit:10;}.cls-3,.cls-4,.cls-6,.cls-7{stroke:#042ff8;}.cls-10,.cls-3,.cls-6,.cls-7{stroke-linecap:round;}.cls-10,.cls-3,.cls-4{stroke-width:3px;}.cls-5{fill:#d02081;}.cls-6{stroke-width:2px;}.cls-7{stroke-width:4px;}.cls-8{fill:#002daa;}.cls-9{fill:#3659f9;}.cls-10{stroke:#fff;}</style></defs><g id="Layer_2" data-name="Layer 2"><g id="Developer"><path class="cls-1" d="M386.52,245.5a31.16,31.16,0,0,1,27.18,15.75L477,372.55l28,6.34c52.87,20.22,35,120.29,35,120.29l-384.23-.67c-25.79-.58-49.57-15.28-60.45-38.67C57.68,379,205,269.26,233.29,249.16a17.59,17.59,0,0,1,10.15-3.25Z"/><path class="cls-2" d="M228.56,252.56c-6.49,4.73-15.92,11.81-26.86,20.69,24.5,18.42,63.33,38.27,106,26.85C307.68,300.1,245.33,290.65,228.56,252.56Z"/><path class="cls-2" d="M373.6,300.36c20.32-.7,38-7.14,53.1-16.26l-10.06-17.67C406.46,289.68,373.6,300.36,373.6,300.36Z"/><path class="cls-1" d="M400.82,212.5c-42.53-49.82-105.63-40.21-140.25-29.79-23.56,7.1-39.19,30.16-35.9,54.55,6.77,50.16,84.4,63.1,84.4,63.1H373.6S455.24,276.25,400.82,212.5Z"/><path class="cls-3" d="M309.07,300.36s-77.63-12.94-84.4-63.1c-3.29-24.39,12.34-47.45,35.9-54.55,34.62-10.42,97.72-20,140.25,29.79,54.42,63.75-27.22,87.86-27.22,87.86"/><circle class="cls-1" cx="280.19" cy="156.05" r="13.94" transform="translate(-28.28 243.83) rotate(-45)"/><circle class="cls-4" cx="280.19" cy="156.05" r="13.94" transform="translate(-28.28 243.83) rotate(-45)"/><path class="cls-1" d="M284.59,179.33V233A21.71,21.71,0,0,0,295,251.5l57.09,34.75,21.51-40.81V194.61Z"/><path class="cls-4" d="M284.59,179.33v50.9a26.56,26.56,0,0,0,12.75,22.69l54.75,33.33L369.63,253a34.41,34.41,0,0,0,4-16v-9.32"/><path class="cls-1" d="M351.7,233.49h0a68.12,68.12,0,0,1-67.82-61.81l-6.69-71.93S398,68.59,404.7,99.75c5.37,24.85-1.23,66.59-7.59,96.84A46.42,46.42,0,0,1,351.7,233.49Z"/><path class="cls-3" d="M405.83,136.13a556.12,556.12,0,0,1-8.72,60.46,46.42,46.42,0,0,1-45.41,36.9h0c-35.17,0-65.3-26.05-68-63.94"/><path class="cls-5" d="M326,121.43q-6-2.33-11.86-4.87a78.07,78.07,0,0,1-22.6,41.14c-1.43,1.37-3.33,2.78-5.23,2.19a5.78,5.78,0,0,1-2.71-2.45l-6.52-9.16c-2.59-3.64-5.68-5.46-8.86-8.71-7.78-8-13.24-18.45-13.55-29.46s5.09-22.39,14.77-28,23.45-4.3,30.83,4C311.18,58.42,342.65,40,372.71,43.78c18.49,2.31,35.35,12.9,46.34,27.49a67.39,67.39,0,0,1,9.7,17.87c2.6,7.29,5.44,16,2.46,23.58a38.59,38.59,0,0,1-27.66,24c-12.45,2.73-25.44.37-37.81-2.7A331.05,331.05,0,0,1,326,121.43Z"/><path class="cls-3" d="M416.54,267.4,477,372.55l28,6.34c52.87,20.22,35,120.29,35,120.29"/><path class="cls-3" d="M228.56,252.56S57.59,374.71,95.32,459.84c10.45,23.59,34.66,38.09,60.45,38.67,47.21,1.06,158.56,2.14,179.93-7.65,21.84-10,19.53-45,16.21-62.66a10.43,10.43,0,0,0-9.67-8.49L211.09,406.88"/><path class="cls-1" d="M343.05,436.06l45.4,2.45,50.37,26.6a5.31,5.31,0,0,1,2.29,7h0a5.3,5.3,0,0,1-6.77,2.58l-32.8-13.36a.5.5,0,0,0-.47.88l34,22.94a5.14,5.14,0,0,1,1.33,7.21h0a5.14,5.14,0,0,1-6.85,1.44L391.2,470.76a.37.37,0,0,0-.44.59L405.66,485a5.61,5.61,0,0,1-2.57,9.62h0a5.63,5.63,0,0,1-4.11-.67l-15.62-9.36-41.22.3a24.41,24.41,0,0,1-24.55-24.41h0A24.41,24.41,0,0,1,343.05,436.06Z"/><path class="cls-4" d="M343.05,436.06l45.4,2.45,50.37,26.6a5.31,5.31,0,0,1,2.29,7h0a5.3,5.3,0,0,1-6.77,2.58l-32.8-13.36a.5.5,0,0,0-.47.88l34,22.94a5.14,5.14,0,0,1,1.33,7.21h0a5.14,5.14,0,0,1-6.85,1.44L391.2,470.76a.37.37,0,0,0-.44.59L405.66,485a5.61,5.61,0,0,1-2.57,9.62h0a5.63,5.63,0,0,1-4.11-.67l-15.62-9.36-41.22.3a24.41,24.41,0,0,1-24.55-24.41h0A24.41,24.41,0,0,1,343.05,436.06Z"/><path class="cls-3" d="M304.51,454.9h0A26.51,26.51,0,0,1,319.73,432"/><path class="cls-3" d="M224.23,382.24s8,5.11,7.48,18.38"/><path class="cls-3" d="M472.22,378.69s-32.14.5-36.76,38.27"/><path class="cls-6" d="M490.61,400.62s-25.4.4-29.05,30.23"/><path class="cls-7" d="M322.49,292.88s22.85,18.89,19.4,73"/><path class="cls-7" d="M367,292.88s-14.31,13.28-7.41,73"/><line class="cls-3" x1="1.5" y1="499.18" x2="843.67" y2="499.18"/><path class="cls-3" d="M367.25,167.55l1.05,24.74a.87.87,0,0,1-1.12.87L360,191"/><path class="cls-3" d="M347.21,196.5s-1,9,8.88,8.73"/><path class="cls-3" d="M374.21,151.93a15.36,15.36,0,0,1,15.37,0"/><path class="cls-3" d="M331.22,150.89a15.36,15.36,0,0,1,15.36-.62"/><path class="cls-2" d="M385.2,165.11c0,2.15-1.45,3.89-3.25,3.89s-3.26-1.74-3.26-3.89,1.46-3.89,3.26-3.89S385.2,163,385.2,165.11Z"/><path class="cls-2" d="M345.19,165.11c0,2.15-1.46,3.89-3.26,3.89s-3.25-1.74-3.25-3.89,1.45-3.89,3.25-3.89S345.19,163,345.19,165.11Z"/><path class="cls-8" d="M332.37,477.19h175.5a0,0,0,0,1,0,0v23.19a0,0,0,0,1,0,0H353.28a20.91,20.91,0,0,1-20.91-20.91v-2.28A0,0,0,0,1,332.37,477.19Z"/><path class="cls-2" d="M691.83,500.38H432.41l53.92-142.79A33.33,33.33,0,0,1,517.52,336H727.76a18.07,18.07,0,0,1,16.9,24.46Z"/><circle class="cls-9" cx="591.8" cy="421.05" r="14.99" transform="translate(-84.37 686.2) rotate(-56.84)"/><path class="cls-5" d="M735.6,183.75H571c-5.45,0-8.57-4.87-6.59-10.24l18.63-50.41a11.57,11.57,0,0,1,10.34-7.48H758c5.44,0,8.57,4.87,6.58,10.25l-18.63,50.4A11.56,11.56,0,0,1,735.6,183.75Z"/><path class="cls-1" d="M620.21,130.83l-1.14-.06a3.15,3.15,0,0,0-3.23,2.15l-4.3,11.54a7.75,7.75,0,0,1-3.64,4.3c1,.89,1.18,2.3.45,4.25l-4.48,12q-.69,1.83,2.91,1.83l-2.51,6.73h-3q-8.28,0-5.34-7.89l4.22-11.32c.56-1.51.42-2.26-.42-2.26h-2.54l2.51-6.73h2.54c.84,0,1.55-.78,2.13-2.32l4.14-11.1q2.94-7.89,11.22-7.89h3Z"/><path class="cls-1" d="M614.71,164.91a3.75,3.75,0,0,1-.12-3.45,7.4,7.4,0,0,1,2.69-3.45,6.67,6.67,0,0,1,4-1.41,3.19,3.19,0,0,1,2.93,1.41,3.75,3.75,0,0,1,.12,3.45,7.46,7.46,0,0,1-2.69,3.45,6.68,6.68,0,0,1-4,1.4A3.17,3.17,0,0,1,614.71,164.91Z"/><path class="cls-1" d="M630.6,164.91a3.75,3.75,0,0,1-.12-3.45,7.53,7.53,0,0,1,2.69-3.45,6.69,6.69,0,0,1,4-1.41,3.17,3.17,0,0,1,2.92,1.41,3.78,3.78,0,0,1,.13,3.45,7.49,7.49,0,0,1-2.7,3.45,6.65,6.65,0,0,1-4,1.4A3.19,3.19,0,0,1,630.6,164.91Z"/><path class="cls-1" d="M646.5,164.91a3.75,3.75,0,0,1-.12-3.45,7.4,7.4,0,0,1,2.69-3.45,6.67,6.67,0,0,1,4-1.41A3.18,3.18,0,0,1,656,158a3.75,3.75,0,0,1,.12,3.45,7.46,7.46,0,0,1-2.69,3.45,6.68,6.68,0,0,1-4,1.4A3.17,3.17,0,0,1,646.5,164.91Z"/><path class="cls-1" d="M662.39,164.91a3.75,3.75,0,0,1-.12-3.45A7.53,7.53,0,0,1,665,158a6.69,6.69,0,0,1,4-1.41,3.17,3.17,0,0,1,2.92,1.41,3.78,3.78,0,0,1,.13,3.45,7.49,7.49,0,0,1-2.7,3.45,6.65,6.65,0,0,1-4,1.4A3.19,3.19,0,0,1,662.39,164.91Z"/><path class="cls-1" d="M678.29,164.91a3.75,3.75,0,0,1-.12-3.45,7.4,7.4,0,0,1,2.69-3.45,6.67,6.67,0,0,1,4-1.41,3.18,3.18,0,0,1,2.93,1.41,3.75,3.75,0,0,1,.12,3.45,7.46,7.46,0,0,1-2.69,3.45,6.68,6.68,0,0,1-4,1.4A3.17,3.17,0,0,1,678.29,164.91Z"/><path class="cls-1" d="M694.18,164.91a3.75,3.75,0,0,1-.12-3.45,7.53,7.53,0,0,1,2.69-3.45,6.69,6.69,0,0,1,4-1.41,3.17,3.17,0,0,1,2.92,1.41,3.78,3.78,0,0,1,.13,3.45,7.49,7.49,0,0,1-2.7,3.45,6.65,6.65,0,0,1-4,1.4A3.19,3.19,0,0,1,694.18,164.91Z"/><path class="cls-1" d="M707.55,166.87l1.14,0a3.13,3.13,0,0,0,3.23-2.15l4.3-11.54a7.8,7.8,0,0,1,3.65-4.3q-1.54-1.32-.46-4.25l4.49-12c.45-1.22-.52-1.82-2.91-1.82l2.51-6.74h3q8.28,0,5.33,7.89l-4.21,11.32c-.57,1.51-.43,2.26.42,2.26h2.54l-2.51,6.74h-2.54q-1.27,0-2.13,2.31l-4.14,11.1q-2.94,7.89-11.22,7.89h-3Z"/><path class="cls-2" d="M695.4,213.38H552.53a2,2,0,0,1-1.85-2.65l2.93-8.06a2,2,0,0,1,1.85-1.3H698.34a2,2,0,0,1,1.85,2.64l-2.94,8.07A2,2,0,0,1,695.4,213.38Z"/><path class="cls-5" d="M625.9,236H562.68a2,2,0,0,1-1.85-2.64l2.94-8.07a2,2,0,0,1,1.85-1.29h63.21a2,2,0,0,1,1.85,2.64l-2.93,8.07A2,2,0,0,1,625.9,236Z"/><path class="cls-2" d="M576.31,258.57H536.07a2,2,0,0,1-1.85-2.64l2.94-8.07a2,2,0,0,1,1.85-1.3h40.24a2,2,0,0,1,1.85,2.64l-2.94,8.07A2,2,0,0,1,576.31,258.57Z"/><path class="cls-2" d="M598.12,258.57H710a2,2,0,0,0,1.85-1.3l2.94-8.07a2,2,0,0,0-1.85-2.64H601.05a2,2,0,0,0-1.85,1.3l-2.93,8.07A2,2,0,0,0,598.12,258.57Z"/><path class="cls-5" d="M602.55,281.16H546.23a2,2,0,0,1-1.85-2.64l2.94-8.07a2,2,0,0,1,1.85-1.29h56.32a2,2,0,0,1,1.85,2.64l-2.94,8.07A2,2,0,0,1,602.55,281.16Z"/><path class="cls-5" d="M618.5,281.16H655a2,2,0,0,0,1.85-1.29l2.94-8.07a2,2,0,0,0-1.85-2.64H621.43a2,2,0,0,0-1.85,1.29l-2.94,8.07A2,2,0,0,0,618.5,281.16Z"/><path class="cls-2" d="M577.47,303.76H519.62a2,2,0,0,1-1.85-2.64l2.94-8.07a2,2,0,0,1,1.85-1.3h57.85a2,2,0,0,1,1.85,2.65l-2.94,8.06A2,2,0,0,1,577.47,303.76Z"/><path class="cls-2" d="M591.62,303.76h137.9a2,2,0,0,0,1.85-1.3l2.93-8.06a2,2,0,0,0-1.85-2.65H594.56a2,2,0,0,0-1.85,1.3l-2.94,8.07A2,2,0,0,0,591.62,303.76Z"/><path class="cls-2" d="M640.81,236H659.6a2,2,0,0,0,1.85-1.29l2.94-8.07a2,2,0,0,0-1.85-2.64H643.75a2,2,0,0,0-1.85,1.29L639,233.33A2,2,0,0,0,640.81,236Z"/><path class="cls-2" d="M711.46,213.38h34.11a2,2,0,0,0,1.85-1.3l2.94-8.07a2,2,0,0,0-1.85-2.64H714.4a2,2,0,0,0-1.85,1.3l-2.94,8.06A2,2,0,0,0,711.46,213.38Z"/><path class="cls-1" d="M748.76,429.5h18.48a23.25,23.25,0,0,1,23.25,23.25v40.88a5.55,5.55,0,0,1-5.55,5.55H731.06a5.55,5.55,0,0,1-5.55-5.55V452.75A23.25,23.25,0,0,1,748.76,429.5Z" transform="translate(1516.01 928.68) rotate(180)"/><path class="cls-3" d="M748.76,429.5h18.48a23.25,23.25,0,0,1,23.25,23.25v40.88a5.55,5.55,0,0,1-5.55,5.55H731.06a5.55,5.55,0,0,1-5.55-5.55V452.75A23.25,23.25,0,0,1,748.76,429.5Z" transform="translate(1516.01 928.68) rotate(180)"/><path class="cls-5" d="M748.31,385.77c1.71-8.42,8-15.43,15.44-19.66s16.11-6,24.67-6.81c-1.78,6.39,1.73,12.89,3.87,19.18,2.44,7.2,3.1,15.23.54,22.39a23.91,23.91,0,0,1-7.5,10.57c-3.47,2.77-7.47,3.4-11.56,4.81-2.12.73-4.08,2.07-6.31,2.16-3.24.14-6-2.39-7.77-5.11-1.47-2.25-2.56-4.76-4.26-6.86s-3.48-3.49-4.77-5.78A21.86,21.86,0,0,1,748.31,385.77Z"/><path class="cls-5" d="M705.12,394.15c.79-6.76,3.16-13.23,4.57-19.9a71,71,0,0,0,1.24-21c7.8,9.09,21.87,9.15,31.93,15.64a31.38,31.38,0,0,1,12.35,16.44c2.49,7.37,2.66,15-.37,22.18l-.41.95c-.92,2.13-1.83,4.25-2.75,6.37-.45,1.05-1,2.22-2.12,2.55a4.83,4.83,0,0,1-1.52.09c-3.66-.09-7.07,1.49-10.61,2.13a51.63,51.63,0,0,1-10.1.46c-6.33-.16-13-1.84-17.43-6.71C705.35,408.31,704.33,400.91,705.12,394.15Z"/><path class="cls-3" d="M780.29,370.81c-11.17,17.09-13.7,38.3-14.76,58.69"/><path class="cls-3" d="M722,375.36a108.84,108.84,0,0,1,30.11,54.14"/><path class="cls-5" d="M94.18,429.5h18.48a23.25,23.25,0,0,1,23.25,23.25v40.88a5.55,5.55,0,0,1-5.55,5.55H76.48a5.55,5.55,0,0,1-5.55-5.55V452.75A23.25,23.25,0,0,1,94.18,429.5Z" transform="translate(206.84 928.68) rotate(180)"/><path class="cls-3" d="M94.18,429.5h18.48a23.25,23.25,0,0,1,23.25,23.25v40.88a5.55,5.55,0,0,1-5.55,5.55H76.48a5.55,5.55,0,0,1-5.55-5.55V452.75A23.25,23.25,0,0,1,94.18,429.5Z" transform="translate(206.84 928.68) rotate(180)"/><path class="cls-3" d="M70.93,443.92H64.09a9.38,9.38,0,0,0-9.38,9.38V455a9.38,9.38,0,0,0,9.38,9.38h6.84"/><line class="cls-3" x1="127.09" y1="439.71" x2="127.09" y2="470.99"/><path class="cls-2" d="M238.51,111.28l-4.39-23.74a62.34,62.34,0,1,0-23.78,27.32l20.79,3.81A6.34,6.34,0,0,0,238.51,111.28Z"/><polyline class="cls-10" points="160.27 53.64 151.72 62.19 160.27 70.74"/><polyline class="cls-10" points="191.08 53.64 199.63 62.19 191.08 70.74"/><line class="cls-10" x1="169.84" y1="46.94" x2="181.92" y2="77.44"/></g></g></svg>