<svg xmlns="http://www.w3.org/2000/svg" viewBox="0 0 845.17 513.26"><defs><style>.cls-1{fill:#fff;}.cls-2,.cls-5,.cls-7{fill:none;stroke-linecap:round;stroke-miterlimit:10;stroke-width:3px;}.cls-2{stroke:#042ff8;}.cls-3{fill:#042ff8;}.cls-4{fill:#0323ba;}.cls-5,.cls-7{stroke:#0323ba;}.cls-5{stroke-dasharray:12.37 12.37;}.cls-6{fill:#d02081;}.cls-8{fill:#1067db;}.cls-9{fill:#02187c;}.cls-10,.cls-9{opacity:0.3;}.cls-10{fill:#002280;}.cls-11{fill:#e3edfe;}</style></defs><g id="Layer_2" data-name="Layer 2"><g id="App_development" data-name="App development"><path class="cls-1" d="M549.4,511.76V418.85L542.9,392a54.24,54.24,0,0,1,8.29-43.84l10.22-14.61a8.32,8.32,0,0,0-5.61-13c-32.1-4.63-115.6-21.68-192-79.6a27.17,27.17,0,0,1-8.5-32.64c6.12-13.85,16.26-29.75,30.57-29.75,23.39,0,315.92,117.79,360.61,135.84a10.61,10.61,0,0,1,6.53,8.41l4.15,30.85L716.06,511.76Z"/><path class="cls-2" d="M549.4,511.76V418.85L542.9,392a54.24,54.24,0,0,1,8.29-43.84l10.22-14.61a8.32,8.32,0,0,0-5.61-13c-32.1-4.63-115.6-21.68-192-79.6a27.17,27.17,0,0,1-8.5-32.64c6.12-13.85,16.26-29.75,30.57-29.75,23.39,0,315.92,117.79,360.61,135.84a10.61,10.61,0,0,1,6.53,8.41l4.15,30.85L716.06,511.76Z"/><polygon class="cls-3" points="755.23 361.15 549.4 456.88 549.4 511.76 716.06 511.76 755.23 361.15"/><path class="cls-4" d="M481.1,511.76H289.91A38.93,38.93,0,0,1,251,472.82l61.2-447.19A25.64,25.64,0,0,1,337.8,0H524.45a43.48,43.48,0,0,1,43.48,43.48l-61.2,442.65C504.84,500.54,495.25,511.76,481.1,511.76Z"/><path class="cls-3" d="M471.72,501.61H276.86A25.64,25.64,0,0,1,251.23,476l61.2-450A25.64,25.64,0,0,1,338.06.34H532.92A25.63,25.63,0,0,1,558.55,26l-61.2,450C494.54,489.49,485.88,501.61,471.72,501.61Z"/><path class="cls-4" d="M459.5,22.68H396.7a1.67,1.67,0,0,1-1.45-2.5h0a1.67,1.67,0,0,1,1.45-.84h62.8a1.67,1.67,0,0,1,1.45,2.5h0A1.67,1.67,0,0,1,459.5,22.68Z"/><path class="cls-5" d="M346.56,434.06H284.34a9.68,9.68,0,0,1-9.59-11l8.82-62.45a13.26,13.26,0,0,1,13.12-11.4h62.23a9.69,9.69,0,0,1,9.59,11.05l-8.83,62.45A13.25,13.25,0,0,1,346.56,434.06Z"/><path class="cls-5" d="M455.67,434.06H393.45a9.68,9.68,0,0,1-9.59-11l8.82-62.45a13.26,13.26,0,0,1,13.12-11.4H468a9.69,9.69,0,0,1,9.59,11.05l-8.83,62.45A13.25,13.25,0,0,1,455.67,434.06Z"/><path class="cls-1" d="M462.29,355.89l-10.94-10.75H430.61v.67a4.7,4.7,0,0,1-4.7,4.7H415.36a10.42,10.42,0,0,1-7.38-3.07L390.3,329.62l2.86-8.29-30.35,1.13a5.51,5.51,0,0,1-5.72-5.51h0a5.52,5.52,0,0,1,3.89-5.27l48.9-15.11h22.46l.45-30a8.71,8.71,0,0,1,8.7-8.58H445l11.17,38.59L483,323.06Z"/><path class="cls-2" d="M462.29,355.89l-10.94-10.75H430.61v.67a4.7,4.7,0,0,1-4.7,4.7H415.36a10.42,10.42,0,0,1-7.38-3.07L390.3,329.62l2.86-8.29-30.35,1.13a5.51,5.51,0,0,1-5.72-5.51h0a5.52,5.52,0,0,1,3.89-5.27l48.9-15.11h22.46l.45-30a8.71,8.71,0,0,1,8.7-8.58H445l11.17,38.59L483,323.06Z"/><path class="cls-2" d="M407.77,309.63l-18.61,15.06a5.76,5.76,0,0,0-.72,8.24h0a5.75,5.75,0,0,0,7.9.75l17.53-13.83"/><path class="cls-2" d="M413.91,319.85,395.3,334.92a5.74,5.74,0,0,0-.73,8.23h0a5.75,5.75,0,0,0,7.9.75L420,330.08"/><path class="cls-2" d="M422.93,340l10.79,6.31a3.4,3.4,0,0,1,1.69,2.95h0a3.41,3.41,0,0,1-3.41,3.41H417.24a13.49,13.49,0,0,1-9.12-3.54l-5.65-5.18"/><path class="cls-1" d="M459.25,339.8a37.47,37.47,0,0,0,7,40.41c29.91,32.14,106.83,109.24,163.79,117.73,57.53,8.57,108.71-99.93,127.12-144.33,6.78-16.34,1.5-36.45-14.48-43.95l-33.34-13.09s-69.17,64.64-86.06,105.59a7.51,7.51,0,0,1-11.92,2.75c-26-23-102.75-88.76-127.48-85.59C470.89,321,463.47,330.07,459.25,339.8Z"/><path class="cls-2" d="M628.31,419c-26-23-119.68-102.89-144.41-99.72-13,1.67-20.43,10.75-24.65,20.48a37.47,37.47,0,0,0,7,40.41c29.91,32.14,106.83,109.24,163.79,117.73,57.53,8.57,108.71-99.93,127.12-144.33,6.78-16.34,1.5-36.45-14.48-43.95"/><path class="cls-2" d="M623.71,402.26s.83-10.85,12.15-10.64"/><path class="cls-3" d="M742.26,309.47c-24.63-9.69-77.64-30.48-135.5-52.69,2.39,25.41,14.3,53.54,14.3,53.54l21.21,12.48s69.73,31,110.91,9.65l5.15-2.83C758.56,322.72,750.64,312.77,742.26,309.47Z"/><path class="cls-3" d="M566.64,241.45c-4.18,28.74,49,70.07,49,70.07l24.6.56s34.64-3.16,65-17.12C668.79,280.7,617.52,260.79,566.64,241.45Z"/><path class="cls-1" d="M589,231.49C573.71,256.64,611.44,315,611.44,315l23,8.64s129,32.25,131.3-53C768.57,167.4,618.35,183.12,589,231.49Z"/><path class="cls-2" d="M656.15,327.54c36.85,4.92,107.93,6.18,109.63-56.89,2.79-103.25-147.43-87.53-176.8-39.16-10.54,17.37,4.18,50.56,14.31,69.45"/><path class="cls-3" d="M658.38,310.05c-6.09-1.92-12.54.27-17.34,4.17s-8.18,9.61-11,15.07a50.52,50.52,0,0,0-3.79,9.16,52,52,0,0,0-1.68,10.38c-.53,6.61-.83,13.07-2.61,19.5A62.87,62.87,0,0,1,613,387.25a2.51,2.51,0,0,0,.9,3.42,2.55,2.55,0,0,0,3.42-.89A69.06,69.06,0,0,0,629.12,355c.45-6.37.73-12.61,3.09-18.62a61.34,61.34,0,0,1,4.19-8.29,46.16,46.16,0,0,1,4.88-7.11c3.88-4.44,9.71-8,15.77-6.09,3.07,1,4.39-3.86,1.33-4.82Z"/><path class="cls-3" d="M608.23,295.67c8.25,7.43,4.84,19.74.57,28.28-2.7,5.42-5.82,10.6-8.29,16.14a69.72,69.72,0,0,0-5.42,16.82,38.22,38.22,0,0,0,1.44,19.67,2.57,2.57,0,0,0,3.08,1.74,2.52,2.52,0,0,0,1.75-3.07c-4.2-11.26-.83-23.37,4-33.85s12.87-20.81,12.9-33c0-6-2-12.18-6.52-16.28-2.38-2.15-5.93,1.38-3.53,3.53Z"/><path class="cls-2" d="M492,329.92s-22.59,3.25-23,32.73"/><path class="cls-3" d="M712,235.19c-5-9.92-20.7-13.16-34.92-10.71l-22,68.08,34.13-15.18C708.61,267.52,718.8,248.63,712,235.19Z"/><path class="cls-2" d="M677.05,224.48c14.22-2.45,29.88.79,34.92,10.71,6.83,13.44-3.36,32.33-22.76,42.19l-34.13,15.18"/><path class="cls-6" d="M597.25,207.08c-29.17-18.66-39.1-64.46-23.52-94.86,12.44-24.28,40.28-41,66.61-44.46,18.11-2.36,36.89-1.52,54.07,4.66s32.69,18,41.28,34.13c12.56,23.54,18.41,56.31,6,80.85-12.07,23.89-33,44.48-59.06,50.58-12.06,2.83-25.79,3-34.74,11.52-2-11.24-10.82-20.11-20.5-26.18S606.87,213.24,597.25,207.08Z"/><path class="cls-6" d="M769,84.27c1.46,8-.07,16.27-6.71,21.49-4.63,3.63-11.71,6.52-17.68,6.22-5.8-.29-10.38-4-14.06-8.24a69.45,69.45,0,0,1-12.83-21.28c-1.69-4.5-3.12-9.19-3.13-14s1.55-9.8,5.07-13.07c4.92-4.56,12.5-4.87,19-3.27A41.6,41.6,0,0,1,769,84.27Z"/><ellipse class="cls-1" cx="689.19" cy="193.87" rx="19" ry="16.12" transform="translate(255.77 763.71) rotate(-68.46)"/><ellipse class="cls-2" cx="689.19" cy="193.87" rx="19" ry="16.12" transform="translate(255.77 763.71) rotate(-68.46)"/><path class="cls-1" d="M608.12,234.37l12.76,27.39a31.27,31.27,0,0,1,2.91,14l-.58,23.72a4.73,4.73,0,0,0,6.66,4.43l34.47-15.45a19.42,19.42,0,0,0,11.49-17.34l1.22-59.95Z"/><path class="cls-2" d="M608.12,234.37l12.76,27.39a31.27,31.27,0,0,1,2.91,14l-.58,23.72a4.73,4.73,0,0,0,6.66,4.43l34.47-15.45a19.42,19.42,0,0,0,11.49-17.34l1.22-59.95Z"/><path class="cls-1" d="M622.31,98.62a18.7,18.7,0,0,0-10.53,8.12c-15.29,24.82-69.8,121.74-3.66,144.32C675.58,274.1,698.4,148,698.4,148S687.09,79.23,622.31,98.62Z"/><path class="cls-2" d="M622.31,98.62a18.7,18.7,0,0,0-10.53,8.12c-15.29,24.82-69.8,121.74-3.66,144.32,33.39,11.4,55.84-13.72,70-42"/><path class="cls-6" d="M646.24,125.12l.11-.08c-2.48,1.8,20.17,25.12,22,27,16.95,17.48,54.45,43.2,62.81,3.89,4-18.85-1.72-38.88-12.47-54.87-5.27-7.84-11.9-15-20.3-19.35-6.88-3.56-14.62-5-22.27-6.25-10.38-1.62-20.94-2.78-31.38-1.58a69.66,69.66,0,0,0-30.65,11.42c-5.86,3.93-50.4,42-31.9,48.88a64.42,64.42,0,0,0,19.51,3.91C616.84,138.79,633.68,134.12,646.24,125.12Z"/><path class="cls-2" d="M624.38,180.31l-12.66,21.28a.86.86,0,0,0,.57,1.29l7.36,1.48"/><path class="cls-2" d="M664.06,168a15.39,15.39,0,0,0-14-6.29"/><ellipse class="cls-3" cx="651.6" cy="176.83" rx="3.89" ry="3.25" transform="translate(223.67 699.06) rotate(-65.85)"/><path class="cls-2" d="M614.67,154a15.36,15.36,0,0,0-14-6.29"/><path class="cls-3" d="M599.25,161.5c-.88,2-.26,4.14,1.38,4.88s3.68-.26,4.56-2.22.26-4.15-1.38-4.88S600.13,159.54,599.25,161.5Z"/><path class="cls-6" d="M630.5,219.26a5.48,5.48,0,1,1-6.15-4.07A5.23,5.23,0,0,1,630.5,219.26Z"/><path class="cls-2" d="M617.5,221.26s9.47,1.44,13.14-6.11"/><circle class="cls-2" cx="603.19" cy="161.59" r="22.37" transform="translate(62.41 473.85) rotate(-45)"/><circle class="cls-2" cx="651.6" cy="176.6" r="22.37" transform="translate(330.02 770.2) rotate(-76.72)"/><line class="cls-2" x1="673.97" y1="176.6" x2="691.46" y2="175.23"/><line class="cls-2" x1="624.63" y1="167.97" x2="630.22" y2="170.02"/><path class="cls-1" d="M211.72,290.32a20,20,0,0,1-20-19.87l14.31-95.75v-.11a20,20,0,0,1,20-20H418.38a20,20,0,0,1,20,19.87l-14.3,95.64c-2,9.71-8.36,20.2-20,20.2Z"/><path class="cls-2" d="M281.92,290.32h-70.2a20,20,0,0,1-20-19.87l14.31-95.75v-.11a20,20,0,0,1,20-20H300"/><path class="cls-7" d="M300,154.61H418.38a20,20,0,0,1,20,19.87l-14.3,95.64c-2,9.71-8.36,20.2-20,20.2H281.92"/><path class="cls-8" d="M298.13,207.38a1.36,1.36,0,0,1-1.36-1.36l1-6.52h0a1.36,1.36,0,0,1,1.36-1.36H409.34a1.36,1.36,0,0,1,1.36,1.35l-1,6.52a1.52,1.52,0,0,1-1.36,1.38Z"/><path class="cls-8" d="M295.68,225a1.36,1.36,0,0,1-1.36-1.36l1-6.52h0a1.36,1.36,0,0,1,1.36-1.36H406.89a1.35,1.35,0,0,1,1.36,1.35l-1,6.52a1.52,1.52,0,0,1-1.36,1.38Z"/><path class="cls-8" d="M293.6,242.57a1.35,1.35,0,0,1-1.36-1.35l1-6.53h0a1.37,1.37,0,0,1,1.37-1.37h61.67a1.37,1.37,0,0,1,1.36,1.36l-1,6.52a1.51,1.51,0,0,1-1.36,1.37Z"/><path class="cls-6" d="M282.08,217.35c-3.38,16.88-19.46,30.55-35.91,30.54s-27-13.71-23.67-30.59,19.45-30.55,35.9-30.53S285.45,200.47,282.08,217.35Z"/><path class="cls-1" d="M262.92,219.06,241.48,230.4a1.64,1.64,0,0,1-2.56-1.73L243.46,206c.31-1.53,2.12-2.49,3.26-1.72l16.89,11.37C264.75,216.38,264.37,218.29,262.92,219.06Z"/><path class="cls-5" d="M393.54,133.85H331.32a9.69,9.69,0,0,1-9.6-11l8.83-62.45A13.26,13.26,0,0,1,343.67,49H405.9a9.69,9.69,0,0,1,9.59,11l-8.83,62.45A13.25,13.25,0,0,1,393.54,133.85Z"/><path class="cls-1" d="M506.73,134.42H438.06a7.33,7.33,0,0,1-7.32-7.33l11.31-73.3a7.33,7.33,0,0,1,7.33-7.33h68.67a7.33,7.33,0,0,1,7.33,7.33l-11.32,73.3A7.33,7.33,0,0,1,506.73,134.42Z"/><path class="cls-3" d="M500.13,113.41H475.5l.19-.86a13.18,13.18,0,0,0,4.9-1.13,6,6,0,0,0,3.23-4,10.89,10.89,0,0,0-.14-4.12l-.28-1.58-1.64-8.84H465.27L462.17,98l-1.46,2.33a22.88,22.88,0,0,0-3.12,6.48,5,5,0,0,0,0,2.59,4,4,0,0,0,1.23,1.95,6.32,6.32,0,0,0,3.49,1.2l-.2.86H445.36l.19-.86a9.15,9.15,0,0,0,3.7-1,14,14,0,0,0,3.55-2.77,30,30,0,0,0,3.22-4q1.68-2.41,4.63-7.25l21.58-35.35h2.13l7.55,39.4a51.83,51.83,0,0,0,1.51,6.37,7,7,0,0,0,1.72,2.89,5.1,5.1,0,0,0,1.83,1,18.76,18.76,0,0,0,3.35.62ZM481.51,91.29,478,71.87,466.21,91.29Z"/><path class="cls-9" d="M344.59,349.69l-47,.44a12.58,12.58,0,0,0-12.29,10.51l-8.15,48.81A10.91,10.91,0,0,0,288,422.14l47-.45a12.56,12.56,0,0,0,12.29-10.51l8.15-48.8A10.91,10.91,0,0,0,344.59,349.69Z"/><path class="cls-6" d="M325,411.69l-47,.45a10.91,10.91,0,0,1-10.85-12.69l8.15-48.81a12.58,12.58,0,0,1,12.29-10.51l47-.44a10.91,10.91,0,0,1,10.85,12.69l-8.15,48.8A12.56,12.56,0,0,1,325,411.69Z"/><path class="cls-1" d="M281.64,376.49l.75-3.84,14.86-6.4-.81,4.11-9.79,4.14,8.14,4.25L294,382.9Z"/><path class="cls-1" d="M312.42,363.08h4l-16.8,25.66h-4Z"/><path class="cls-1" d="M330.91,372.65l-.75,3.84L315.3,382.9l.81-4.15,9.82-4.25-8.17-4.14.81-4.11Z"/><path class="cls-4" d="M388,98.28h6.23A2.86,2.86,0,0,0,397,96L398.4,88a1.85,1.85,0,0,0-1.87-2.28h-4.88a1.52,1.52,0,0,1-1.55-1.28c-.09-.45-.2-.9-.32-1.34a2.16,2.16,0,0,1,.75-2.17l4.08-3.46a2.37,2.37,0,0,0,.59-3.23l-4.61-5.62a2.27,2.27,0,0,0-3.23,0l-4.1,3.47a2.05,2.05,0,0,1-2.16.4l-1.38-.6a1.54,1.54,0,0,1-.88-1.76l.9-4.93A1.85,1.85,0,0,0,377.87,63h-7.95a2.86,2.86,0,0,0-2.7,2.28l-.89,4.88a2.43,2.43,0,0,1-1.6,1.79c-.51.18-1,.37-1.52.59a1.78,1.78,0,0,1-2.1-.35l-2.84-3.45a2.28,2.28,0,0,0-3.23,0l-6.63,5.64a2.36,2.36,0,0,0-.58,3.23l2.86,3.47a1.81,1.81,0,0,1,0,2.08c-.3.49-.61,1-.87,1.49a2.35,2.35,0,0,1-2,1.2h-4.94a2.86,2.86,0,0,0-2.69,2.29l-1.43,8a1.85,1.85,0,0,0,1.88,2.28h4.88a1.54,1.54,0,0,1,1.56,1.27c.09.46.19.91.31,1.35a2.14,2.14,0,0,1-.74,2.17l-4.08,3.46a2.37,2.37,0,0,0-.58,3.23l4.61,5.61a2.27,2.27,0,0,0,3.23,0L354,112a2,2,0,0,1,2.15-.4c.46.21,1,.42,1.39.6a1.53,1.53,0,0,1,.87,1.75l-.88,4.93a1.85,1.85,0,0,0,1.87,2.28h7.95a2.87,2.87,0,0,0,2.7-2.29l.88-4.88a2.43,2.43,0,0,1,1.6-1.79c.49-.17,1-.35,1.45-.56a1.78,1.78,0,0,1,2.1.36l2.83,3.44a2.27,2.27,0,0,0,3.23,0l6.64-5.63a2.37,2.37,0,0,0,.59-3.23l-2.85-3.47a1.8,1.8,0,0,1,0-2.08C387.21,99.78,388,98.36,388,98.28ZM357.9,90c2.6-7,10.6-11,16.68-8.48,4.63,1.92,6.68,7.3,4.74,12.54-2.6,7-10.6,11-16.69,8.47C358,100.63,356,95.25,357.9,90Z"/><path class="cls-4" d="M450.16,397.86h6.23a2.86,2.86,0,0,0,2.7-2.28l1.44-7.95a1.86,1.86,0,0,0-1.87-2.29h-4.88a1.52,1.52,0,0,1-1.55-1.28c-.09-.46-.2-.91-.32-1.35a2.18,2.18,0,0,1,.75-2.17l4.08-3.45a2.37,2.37,0,0,0,.59-3.23l-4.6-5.62a2.29,2.29,0,0,0-3.24,0l-4.1,3.48a2.07,2.07,0,0,1-2.16.4c-.45-.21-1-.43-1.38-.61a1.53,1.53,0,0,1-.88-1.75l.9-4.93a1.86,1.86,0,0,0-1.87-2.29h-7.95a2.87,2.87,0,0,0-2.7,2.29l-.89,4.88a2.4,2.4,0,0,1-1.6,1.78c-.51.18-1,.38-1.52.59a1.76,1.76,0,0,1-2.1-.35l-2.84-3.44a2.27,2.27,0,0,0-3.23,0l-6.63,5.64a2.37,2.37,0,0,0-.58,3.23l2.86,3.47a1.8,1.8,0,0,1,0,2.08c-.3.49-.61,1-.87,1.49a2.37,2.37,0,0,1-2,1.2h-4.94a2.86,2.86,0,0,0-2.69,2.29l-1.43,8a1.86,1.86,0,0,0,1.88,2.28h4.88a1.54,1.54,0,0,1,1.56,1.27c.09.46.19.91.31,1.35a2.15,2.15,0,0,1-.74,2.17l-4.08,3.45a2.38,2.38,0,0,0-.58,3.24l4.61,5.61a2.29,2.29,0,0,0,3.24,0l4.1-3.49a2.08,2.08,0,0,1,2.15-.4l1.39.61a1.52,1.52,0,0,1,.87,1.75l-.88,4.93a1.85,1.85,0,0,0,1.87,2.28h8a2.88,2.88,0,0,0,2.7-2.29l.88-4.88a2.43,2.43,0,0,1,1.6-1.79c.49-.17,1-.36,1.45-.56a1.75,1.75,0,0,1,2.1.36L441,415a2.28,2.28,0,0,0,3.23,0l6.64-5.63a2.36,2.36,0,0,0,.59-3.23l-2.85-3.47a1.8,1.8,0,0,1,0-2.08C449.34,399.36,450.12,397.94,450.16,397.86ZM420,389.59c2.6-7,10.6-11,16.68-8.48,4.63,1.92,6.68,7.3,4.74,12.53-2.6,7-10.6,11-16.69,8.48C420.14,400.2,418.09,394.82,420,389.59Z"/><ellipse class="cls-10" cx="481.83" cy="234.02" rx="29.37" ry="23.12" transform="translate(-33.9 378.75) rotate(-41.58)"/><path class="cls-6" d="M500.34,226.83c-3.45,14.39-17.91,26.06-32.3,26.06s-23.26-11.67-19.81-26.06,17.91-26.06,32.3-26.06S503.79,212.44,500.34,226.83Z"/><polygon class="cls-1" points="468.31 237.39 461.43 228.34 467.84 223.17 470.79 227.05 484.14 216.27 488.07 221.44 468.31 237.39"/><path class="cls-1" d="M298.22,147.3c-.05-2.56-1.49-4.62-3.27-4.65l-40.15-.77c-5.72-.12-10,6.59-8.61,13.57l1.88,9.63c1,4.9,4.45,8.35,8.47,8.35h2.74c.35,0,.62.4.64.9.32,7.73,6.35,13.88,12.58,13.88h0c.7,3.47,2.9,5.86,5.41,5.86h2.46c2.12,0,4.06-1.71,5-4.43l.5-1.43c6.44,0,12.6-6.57,12.6-14.67V163Z"/><path class="cls-2" d="M298.22,147.3c-.05-2.56-1.49-4.62-3.27-4.65l-40.15-.77c-5.72-.12-10,6.59-8.61,13.57l1.88,9.63c1,4.9,4.45,8.35,8.47,8.35h2.74c.35,0,.62.4.64.9.32,7.73,6.35,13.88,12.58,13.88h0c.7,3.47,2.9,5.86,5.41,5.86h2.46c2.12,0,4.06-1.71,5-4.43l.5-1.43c6.44,0,12.6-6.57,12.6-14.67V163Z"/><line class="cls-2" x1="257.23" y1="157.47" x2="259.82" y2="173.46"/><line class="cls-2" x1="271.58" y1="160.9" x2="272.29" y2="187.77"/><line class="cls-2" x1="286.24" y1="160.9" x2="286.24" y2="188.21"/><path class="cls-6" d="M218.6,116.06l-65.09.61a15.08,15.08,0,0,1-15-17.56l11.27-67.53a17.41,17.41,0,0,1,17-14.54l65.09-.61a15.07,15.07,0,0,1,15,17.55l-11.27,67.53A17.42,17.42,0,0,1,218.6,116.06Z"/><path class="cls-1" d="M197.48,83.34,176.69,87A2.26,2.26,0,0,1,174,84.29h0a3.55,3.55,0,0,1,2.79-2.72l20.79-3.67a2.25,2.25,0,0,1,2.74,2.72h0A3.55,3.55,0,0,1,197.48,83.34Z"/><path class="cls-1" d="M195.84,91.93l-20.79,3.68a2.25,2.25,0,0,1-2.74-2.72h0a3.52,3.52,0,0,1,2.78-2.72l20.79-3.68a2.26,2.26,0,0,1,2.75,2.72h0A3.55,3.55,0,0,1,195.84,91.93Z"/><path class="cls-1" d="M212.77,51.6c2.08-10.91-5.07-19.76-16-19.76s-21.45,8.85-23.54,19.76c-1.15,6,.53,11.41,4.08,15L175,78.86l26.51-4.68,1.44-7.54A24.79,24.79,0,0,0,212.77,51.6Z"/><path class="cls-1" d="M181.47,97.19a3.37,3.37,0,0,0,3.52,3.49,5.4,5.4,0,0,0,5.07-4.26,4.08,4.08,0,0,0,.07-.77Z"/><path class="cls-11" d="M86.6,473.34a17.46,17.46,0,1,0,0,34.91h72.85V473.34Z"/><path class="cls-1" d="M155.83,508.26a47.18,47.18,0,0,1,0-34.92h136a47.18,47.18,0,0,0,0,34.92Z"/><rect class="cls-3" x="137.68" y="471.49" width="159.57" height="3.72"/><rect class="cls-3" x="137.68" y="506.4" width="159.57" height="3.72"/><path class="cls-3" d="M167.84,510.11H86.6a19.31,19.31,0,1,1,0-38.62h81.24v3.71H86.6a15.6,15.6,0,0,0,0,31.2h81.24Z"/><path class="cls-11" d="M94.66,421.63a23.66,23.66,0,1,0,0,47.31h73.7V421.63Z"/><path class="cls-1" d="M145.25,468.94a64.05,64.05,0,0,1,0-47.32h115a63.92,63.92,0,0,0,0,47.32Z"/><path class="cls-6" d="M168.36,471.46H94.66a26.18,26.18,0,1,1,0-52.35h73.7v5H94.66a21.14,21.14,0,1,0,0,42.28h73.7Z"/><rect class="cls-6" x="163.88" y="419.11" width="103.65" height="5.04"/><rect class="cls-6" x="163.88" y="466.42" width="103.65" height="5.04"/><polygon class="cls-6" points="132.95 462.5 122.32 457.78 111.68 462.5 111.68 442.06 132.95 442.06 132.95 462.5"/><line class="cls-2" x1="1.5" y1="511.76" x2="843.67" y2="511.76"/></g></g></svg>