<svg xmlns="http://www.w3.org/2000/svg" viewBox="0 0 845.17 476.18"><defs><style>.cls-1{fill:#d02081;}.cls-2{fill:none;stroke:#042ff8;stroke-linecap:round;stroke-miterlimit:10;stroke-width:3px;}.cls-3,.cls-6,.cls-7{fill:#fff;}.cls-4{fill:#042ff8;}.cls-5{fill:#002daa;}.cls-6{font-size:41.47px;}.cls-6,.cls-7{font-family:Poppins-SemiBold, Poppins;font-weight:600;}.cls-7{font-size:30px;}</style></defs><g id="Layer_2" data-name="Layer 2"><g id="Text"><path class="cls-1" d="M623.53,281.42s-70.31-52.07-44.21-121.28c0,0,6.83,25.18,26,38.76C605.34,198.9,643.14,241.69,623.53,281.42Z"/><path class="cls-1" d="M722.27,294.5s-9.57,49.6-75.93,30.58c0,0-3.46-18.08,29.9-23.43a39.59,39.59,0,0,1,15.8,1C698.73,304.27,710.38,304.82,722.27,294.5Z"/><path class="cls-1" d="M708,189.21S611.37,228,634.57,306.39c0,0,17.75-1.18,37.23-22.12,12.84-13.82,20.5-31.58,23.05-50.28C696.29,223.38,699.78,208.06,708,189.21Z"/><path class="cls-1" d="M594,259.71s-20.79-24-55.89,3.22c0,0,42.48-.83,35.32,20.17,0,0-2.42,29.2,17.73,42.7C591.13,325.8,624.08,283.74,594,259.71Z"/><path class="cls-2" d="M687.52,209.41A725.17,725.17,0,0,0,646.74,285c-3.42,7.36-6.73,14.79-11,21.65-16.51,26.2-47,43-57.69,72.05"/><path class="cls-2" d="M694.44,312.6c-17.43,11-40.61,6.12-59.75,13.71-19.67,7.8-36.4,33.16-41.86,53.6"/><path class="cls-2" d="M579.46,187.07c-.44,12.47,6.23,24.08,13.9,33.93s16.62,18.91,22.1,30.12a57.58,57.58,0,0,1,3.47,41.08c-3.24,11-9.7,20.74-15.22,30.81s-10.28,21.13-9.59,32.59"/><path class="cls-2" d="M555.66,258.39a58.13,58.13,0,0,1,17.41,5.44c3.45,1.72,6.85,3.91,8.76,7.25,1.48,2.6,1.91,5.64,2.31,8.6q4.41,32.18,8.8,64.34c1.64,12,3.25,24.31-.11,35.89"/><path class="cls-3" d="M469.46,229l45.59,5.93a100.87,100.87,0,0,1,84.26,73.25L633.7,469.34H229.13l7.14-92.26A159.35,159.35,0,0,1,356.81,234.72L379.87,229Z"/><path class="cls-2" d="M469.46,229l45.59,5.93a100.87,100.87,0,0,1,84.26,73.25L632.7,469.34H229.13l7.14-92.26A159.35,159.35,0,0,1,356.81,234.72L379.87,229Z"/><path class="cls-3" d="M309.86,340.49H240.1a64.43,64.43,0,0,0-64.43,64.42h0a64.43,64.43,0,0,0,64.43,64.43h69.76Z"/><path class="cls-2" d="M243.47,340.49H240.1a64.43,64.43,0,0,0-64.43,64.42h0a64.43,64.43,0,0,0,64.43,64.43h69.76"/><path class="cls-3" d="M542.39,340.49h69.76a64.42,64.42,0,0,1,64.42,64.42h0a64.43,64.43,0,0,1-64.42,64.43H542.39Z"/><path class="cls-2" d="M606,340.49h6.14a64.42,64.42,0,0,1,64.42,64.42h0a64.43,64.43,0,0,1-64.42,64.43H542.39"/><path class="cls-4" d="M384,302.44l56.42-16.38s34.35-23.37,54.63-53.73L469.46,229H379.87l-23.06,5.72a159.05,159.05,0,0,0-54.94,25.47C320.77,295.11,384,302.44,384,302.44Z"/><path class="cls-4" d="M385.49,289.33l57.27,13.11s91.6-8.23,109.18-55.13a100.49,100.49,0,0,0-36.89-12.38L469.46,229H379.87l-23.06,5.72a159.1,159.1,0,0,0-15.65,4.74C355.14,267.52,385.49,289.33,385.49,289.33Z"/><path class="cls-3" d="M534.73,203c-19-57.24-187.56-43.67-212.8,4C291.88,263.72,384,302.44,384,302.44h58.75S555.58,265.72,534.73,203Z"/><path class="cls-4" d="M479.13,190c-10.48-37.43-103.3-28.56-117.21,2.62-16.54,37.1,34.2,62.42,34.2,62.42h50.43S490.61,231,479.13,190Z"/><path class="cls-2" d="M384,302.44S291.88,263.72,321.93,207c25.24-47.67,193.78-61.24,212.8-4,20.85,62.75-92,99.47-92,99.47"/><path class="cls-2" d="M638,365.44s25.88,16.4,16.63,54.11"/><path class="cls-2" d="M215.36,365.26s-25.88,16.4-16.62,54.12"/><path class="cls-4" d="M387,287.65c6.39,8,9.32,18.32,9.72,28.43.44,11.36-2.3,22.51-6.27,33.08-2.34,6.23-5.13,12.28-8,18.27a2.57,2.57,0,0,0,.9,3.42,2.53,2.53,0,0,0,3.42-.9c10.29-21.3,19.68-45.44,12.48-69.23a49.44,49.44,0,0,0-8.69-16.6,2.52,2.52,0,0,0-3.54,0,2.56,2.56,0,0,0,0,3.53Z"/><path class="cls-4" d="M441.4,281.61a67.79,67.79,0,0,0-18.78,30c-4,13.14-3.35,27-1,40.39,1.39,7.8,3.38,15.48,5.38,23.14.81,3.11,5.63,1.79,4.82-1.33-3.39-13-6.83-26.17-7.13-39.67a65,65,0,0,1,8.44-34.34,62.91,62.91,0,0,1,11.76-14.63c2.37-2.19-1.17-5.71-3.53-3.54Z"/><path class="cls-1" d="M440.64,372h-1.35V352.84a15.31,15.31,0,0,1,15.3-15.29H567.45a15.31,15.31,0,0,1,15.3,15.29V456.29a15.31,15.31,0,0,1-15.3,15.29H454.59a15.31,15.31,0,0,1-15.3-15.29v-27h1.35a28.64,28.64,0,0,0,0-57.28Z"/><path class="cls-4" d="M412.37,353v17.6a30,30,0,0,1,0,60v25.51a14.12,14.12,0,0,1-14.12,14.12H285.74a14.12,14.12,0,0,1-14.12-14.12V353a14.12,14.12,0,0,1,14.12-14.12H398.25A14.12,14.12,0,0,1,412.37,353Z"/><path class="cls-3" d="M238.45,373.87h22l7.22-9.73a2.18,2.18,0,0,1,3.92,1.3v25.92l22.24,13.55h24.53a8.18,8.18,0,0,1,8.18,8.18h0a8.18,8.18,0,0,1-8.18,8.18h-.58l-.84,9.57a5.68,5.68,0,0,1-5.42,5.18h0v6.52a5.25,5.25,0,0,1-5.24,5.24h-2.77l-.09,2.23a7.12,7.12,0,0,1-7.11,6.81H270.5a8.53,8.53,0,0,1-5.53-2l-38-32.27A25.66,25.66,0,0,1,216.67,402v-2.75a25.67,25.67,0,0,1,21.78-25.37Z"/><path class="cls-2" d="M238.45,373.87h22l7.22-9.73a2.18,2.18,0,0,1,3.92,1.3v25.92l22.24,13.55h24.53a8.18,8.18,0,0,1,8.18,8.18h0a8.18,8.18,0,0,1-8.18,8.18h-.58l-.84,9.57a5.68,5.68,0,0,1-5.42,5.18h0v6.52a5.25,5.25,0,0,1-5.24,5.24h-2.77l-.09,2.23a7.12,7.12,0,0,1-7.11,6.81H270.5a8.53,8.53,0,0,1-5.53-2l-38-32.27A25.66,25.66,0,0,1,216.67,402v-2.75a25.67,25.67,0,0,1,21.78-25.37Z"/><polyline class="cls-2" points="261.98 409.75 282.59 422.77 317.81 421.27"/><polyline class="cls-2" points="260.71 424.3 281.32 437.31 310.65 436.06"/><polyline class="cls-2" points="260.71 435.51 281.32 448.53 303.16 447.6"/><path class="cls-3" d="M617.8,373.87h-22l-8.71-8.06a2,2,0,0,0-3.43,1.51l.12,24.58-21.36,13H537.85a8.19,8.19,0,0,0-8.18,8.18h0a8.18,8.18,0,0,0,8.18,8.18h.59l.83,9.57A5.69,5.69,0,0,0,544.7,436h0v6.52a5.24,5.24,0,0,0,5.24,5.24h2.77l.09,2.23a7.11,7.11,0,0,0,7.1,6.81h25.85a8.53,8.53,0,0,0,5.52-2l38-32.27A25.69,25.69,0,0,0,639.58,402v-2.75a25.68,25.68,0,0,0-21.78-25.37Z"/><path class="cls-2" d="M617.8,373.87h-22l-8.71-8.06a2,2,0,0,0-3.43,1.51l.12,24.58-21.36,13H537.85a8.19,8.19,0,0,0-8.18,8.18h0a8.18,8.18,0,0,0,8.18,8.18h.59l.83,9.57A5.69,5.69,0,0,0,544.7,436h0v6.52a5.24,5.24,0,0,0,5.24,5.24h2.77l.09,2.23a7.11,7.11,0,0,0,7.1,6.81h25.85a8.53,8.53,0,0,0,5.52-2l38-32.27A25.69,25.69,0,0,0,639.58,402v-2.75a25.68,25.68,0,0,0-21.78-25.37Z"/><polyline class="cls-2" points="594.26 409.75 573.66 422.77 538.44 421.27"/><polyline class="cls-2" points="595.54 424.3 574.93 437.31 545.6 436.06"/><polyline class="cls-2" points="595.54 435.51 574.93 448.53 553.09 447.6"/><line class="cls-2" x1="1.5" y1="469.33" x2="843.67" y2="469.33"/><path class="cls-3" d="M384,203v36.7a18.67,18.67,0,0,0,5,12.74l20.35,21.76a13.47,13.47,0,0,0,18.95.72l24.25-22.32a18.68,18.68,0,0,0,6-13.72V203Z"/><path class="cls-2" d="M384,203v36.7a18.67,18.67,0,0,0,5,12.74l20.35,21.76a13.47,13.47,0,0,0,18.95.72l24.25-22.32a18.68,18.68,0,0,0,6-13.72V203Z"/><path class="cls-1" d="M403.39,208.43c-11.93-4.64-23.08-13.3-28.38-22.92-1.07-1.94-3.1-3.19-4.74-4.72a119,119,0,0,1-27.8-40.87,71.54,71.54,0,0,1-4.8-20.3,75.43,75.43,0,0,1,8.21-41.1c4.72-9.09,10.44-18.42,18.81-25.35s20-14.87,30.73-17.73c11.56-3.07,22.25-3.32,34.13-1.86,11.06,1.36,22.09,3.55,32.3,7.69S481.5,51.66,488,59.91a66.24,66.24,0,0,1,8.19,14.23c4.61,10.43,7.32,20.59,5.27,31.79a205.42,205.42,0,0,1-17,51.65c-7.25,15.15-16.35,32.9-29.32,44.69a29.19,29.19,0,0,1-5.77,4.15C435.82,213.63,417.63,214,403.39,208.43Z"/><path class="cls-1" d="M455.35,38.92A43.08,43.08,0,0,1,440,48.46c-8.67,3.32-18.78,5.3-28,3.43-8.9-1.82-16.71-7.51-22.18-14.65a32.11,32.11,0,0,1-5.15-9.48c-1.69-5.21-1.64-11.13.92-16,2.74-5.15,8-8.58,13.65-10.22S410.81-.11,416.65.08c9.25.3,18.48,1.15,27.7,2a30.8,30.8,0,0,1,7.46,1.31c6.38,2.23,10.79,8.68,11.44,15.41s-2.07,13.5-6.5,18.6C456.3,37.93,455.83,38.43,455.35,38.92Z"/><path class="cls-3" d="M383.78,79.07a43.18,43.18,0,0,0-13.21,21.59c-9,34.29-27.21,130.87,50.45,135.63,64.93,4,61.93-93.12,57.51-135.82A43.21,43.21,0,0,0,453,65.2C436,57.8,411.05,55.12,383.78,79.07Z"/><path class="cls-2" d="M383.78,79.07a43.18,43.18,0,0,0-13.21,21.59c-9,34.29-27.21,130.87,50.45,135.63,64.93,4,61.93-93.12,57.51-135.82A43.21,43.21,0,0,0,453,65.2C436,57.8,411.05,55.12,383.78,79.07Z"/><circle class="cls-3" cx="362.15" cy="155.95" r="17.65"/><path class="cls-2" d="M362.77,174.23A17.15,17.15,0,1,1,361.9,140"/><path class="cls-3" d="M497.72,144.45a17.66,17.66,0,1,1-21-13.49A17.65,17.65,0,0,1,497.72,144.45Z"/><path class="cls-2" d="M481.93,130.58a17.65,17.65,0,1,1-3.24,35.16"/><path class="cls-1" d="M379.4,134c16.57-7.76,33.24-20,38.43-38.38,6.09,7.87,14.22,14.89,22.29,20.65,13.17,9.4,31.17,18.6,47.78,20.1,1.18.11,3,.46,4.16,0a4.58,4.58,0,0,0,2-2.1c1-1.93,1.31-4.18,1.82-6.28.25-1,.46-2,.64-3,.48-2.71,1.08-5.88.68-8.64a7.24,7.24,0,0,0-.88-2.33,24.55,24.55,0,0,1-1.35-3.42,57.71,57.71,0,0,0-3.59-8.13c-.57-1.08-1.17-2.13-1.79-3.18a200.81,200.81,0,0,0-14.88-21.68,60,60,0,0,0-10-10.54,47.25,47.25,0,0,0-14.3-7.23,32.59,32.59,0,0,0-9.27-2c-2.54-.09-5.13-1.46-7.6-2a54.49,54.49,0,0,0-8.62-1.28,65,65,0,0,0-17.27,1.21c-11.25,2.26-21.83,7.07-31.85,12.67-5.41,3-10.78,6.35-14.81,11a47.84,47.84,0,0,0-7.2,12.25,118.15,118.15,0,0,0-9.69,47.81c0,1.77.32,3.59,2.2,4.27,3.93,1.44,9.3-1.44,13.06-2.45A124.69,124.69,0,0,0,379.4,134Z"/><path class="cls-2" d="M403.37,140.31a15.36,15.36,0,0,0-15.32,1.23"/><path class="cls-4" d="M393.47,159.33c.17,2.14,1.76,3.76,3.55,3.62s3.11-2,2.94-4.14-1.77-3.76-3.56-3.62S393.3,157.19,393.47,159.33Z"/><path class="cls-2" d="M438.05,140.31a15.36,15.36,0,0,1,15.32,1.23"/><path class="cls-4" d="M448,159.33c-.18,2.14-1.77,3.76-3.56,3.62s-3.1-2-2.93-4.14,1.76-3.76,3.55-3.62S448.13,157.19,448,159.33Z"/><path class="cls-2" d="M421.41,167.1l-4.11,25.66a2.62,2.62,0,0,0,2.59,3h7.26"/><path class="cls-1" d="M438.69,204.62A5.47,5.47,0,1,1,431.5,203,5.22,5.22,0,0,1,438.69,204.62Z"/><path class="cls-2" d="M427.26,211.12s9.36-2,10.11-10.39"/><path class="cls-1" d="M123.94,399.09h18.48a23.25,23.25,0,0,1,23.25,23.25v40.88a5.55,5.55,0,0,1-5.55,5.55H106.24a5.55,5.55,0,0,1-5.55-5.55V422.35A23.25,23.25,0,0,1,123.94,399.09Z" transform="translate(266.37 867.87) rotate(180)"/><path class="cls-2" d="M123.94,399.09h18.48a23.25,23.25,0,0,1,23.25,23.25v40.88a5.55,5.55,0,0,1-5.55,5.55H106.24a5.55,5.55,0,0,1-5.55-5.55V422.35A23.25,23.25,0,0,1,123.94,399.09Z" transform="translate(266.37 867.87) rotate(180)"/><path class="cls-2" d="M100.69,413.52H93.85a9.38,9.38,0,0,0-9.38,9.38v1.65a9.38,9.38,0,0,0,9.38,9.38h6.84"/><line class="cls-2" x1="156.85" y1="409.3" x2="156.85" y2="440.58"/><path class="cls-4" d="M692.69,332.85h0a5.13,5.13,0,0,0-5,5.21l9.84,51.44h10.08l-9.84-51.44A5.12,5.12,0,0,0,692.69,332.85Z"/><path class="cls-1" d="M746.78,332.85h0a5.12,5.12,0,0,1,5,5.21L742,389.5H731.91l9.83-51.44A5.13,5.13,0,0,1,746.78,332.85Z"/><path class="cls-1" d="M708.24,332.85H712a3.14,3.14,0,0,1,3.14,3.14V389.5a0,0,0,0,1,0,0H705.1a0,0,0,0,1,0,0V336A3.14,3.14,0,0,1,708.24,332.85Z"/><path class="cls-5" d="M727.91,332.85h3.81a3.14,3.14,0,0,1,3.14,3.14V389.5a0,0,0,0,1,0,0H724.77a0,0,0,0,1,0,0V336A3.14,3.14,0,0,1,727.91,332.85Z"/><path class="cls-4" d="M722.89,327.29h0a5.13,5.13,0,0,0-5,5.21l-4.91,57H723l4.91-57A5.12,5.12,0,0,0,722.89,327.29Z"/><path class="cls-3" d="M687.27,370.26H751a2.25,2.25,0,0,1,2.25,2.25V455a13.53,13.53,0,0,1-13.53,13.53H698.55A13.53,13.53,0,0,1,685,455V372.51A2.25,2.25,0,0,1,687.27,370.26Z"/><path class="cls-2" d="M687.27,370.26H751a2.25,2.25,0,0,1,2.25,2.25V455a13.53,13.53,0,0,1-13.53,13.53H698.55A13.53,13.53,0,0,1,685,455V372.51A2.25,2.25,0,0,1,687.27,370.26Z"/><line class="cls-2" x1="479.43" y1="138.15" x2="494.04" y2="134.27"/><line class="cls-2" x1="359.3" y1="142.69" x2="345.5" y2="144.17"/><circle class="cls-2" cx="389.67" cy="148.21" r="28.58" transform="translate(-27.06 160.4) rotate(-22.5)"/><circle class="cls-2" cx="452.67" cy="148.21" r="28.58" transform="translate(-22.26 184.51) rotate(-22.5)"/><line class="cls-2" x1="418.24" y1="147.63" x2="424.09" y2="147.63"/><text class="cls-6" transform="translate(344.04 451.59)">JS</text><text class="cls-7" transform="translate(480.54 428.46)">JS</text><text class="cls-7" transform="translate(480.54 393.61)">Node</text></g></g></svg>